<?xml version="1.0" encoding="iso-8859-1"?>
<!-- Generator: Adobe Illustrator 19.0.0, SVG Export Plug-In . SVG Version: 6.00 Build 0)  -->
<svg version="1.1" id="Capa_1" xmlns="http://www.w3.org/2000/svg" xmlns:xlink="http://www.w3.org/1999/xlink" x="0px" y="0px"
	 viewBox="0 0 511.997 511.997" style="enable-background:new 0 0 511.997 511.997;" xml:space="preserve">
<path style="fill:#495259;" d="M255.82,232.33l-124.291,18.824l-53.252-60.857c-3.138-10.282-4.466-21.893-2.887-34.843
	c7.845-64.33,92.572-48.639,92.572-48.639"/>
<ellipse style="fill:#E9E7EC;" cx="128.617" cy="222.207" rx="94.172" ry="38.217"/>
<path style="fill:#D1D1D1;" d="M154.234,232.179c-50.36,0-91.486-16.044-94.043-36.222c-15.955,6.847-25.741,16.086-25.741,26.253
	c0,21.106,42.16,38.216,94.169,38.216c52.008,0,94.169-17.11,94.169-38.216c0-0.668-0.043-1.334-0.127-1.994
	C205.496,227.58,181.189,232.179,154.234,232.179z"/>
<rect x="19.155" y="282.541" style="fill:#886A59;" width="472.451" height="108.262"/>
<g>
	<rect x="19.155" y="282.541" style="fill:#775A4B;" width="27.217" height="108.262"/>
	<rect x="468.968" y="282.541" style="fill:#775A4B;" width="27.217" height="108.262"/>
</g>
<g>
	<rect y="78.579" style="fill:#886A59;" width="29.81" height="354.838"/>
	<rect x="480.945" y="197.166" style="fill:#886A59;" width="31.052" height="236.241"/>
</g>
<path style="fill:#775A4B;" d="M480.948,211.814v118.121l-301.829,17.701c-6.053,0.355-11.158-4.458-11.158-10.523V121.46
	c0,0,97.812-9.33,196.974,24.1C405.604,159.252,446.493,180.141,480.948,211.814z"/>
<path style="fill:#E41A1E;" d="M480.948,197.17V315.29H178.502c-5.821,0-10.541-4.72-10.541-10.541V106.815
	c0,0,97.812-9.33,196.974,24.1C405.604,144.608,446.493,165.497,480.948,197.17z"/>
<path style="fill:#C90E20;" d="M364.935,130.915c-48.749-12.819-108.948,14.802-126.238,99.801
	c-6.124,30.112-32.489,51.818-63.217,51.818h-7.521V106.815C167.961,106.815,265.773,97.485,364.935,130.915z"/>
<rect x="29.81" y="251.161" style="fill:#BEC9CD;" width="138.147" height="31.379"/>
<g>
</g>
<g>
</g>
<g>
</g>
<g>
</g>
<g>
</g>
<g>
</g>
<g>
</g>
<g>
</g>
<g>
</g>
<g>
</g>
<g>
</g>
<g>
</g>
<g>
</g>
<g>
</g>
<g>
</g>
</svg>
