<?xml version="1.0" encoding="iso-8859-1"?>
<!-- Generator: Adobe Illustrator 19.0.0, SVG Export Plug-In . SVG Version: 6.00 Build 0)  -->
<svg version="1.1" id="Capa_1" xmlns="http://www.w3.org/2000/svg" xmlns:xlink="http://www.w3.org/1999/xlink" x="0px" y="0px"
	 viewBox="0 0 512 512" style="enable-background:new 0 0 512 512;" xml:space="preserve">
<path style="fill:#F95428;" d="M168.638,443.855h-22.478v64.858c0,2.7,3.082,4.241,5.243,2.622l17.235-12.923l17.235,12.923
	c2.16,1.62,5.243,0.078,5.243-2.622v-64.858H168.638z"/>
<path style="fill:#90BC42;" d="M168.64,443.858v54.558l-17.236,12.923c-2.16,1.62-5.242,0.078-5.242-2.622v-64.859H168.64z"/>
<path style="fill:#E53B1A;" d="M168.64,443.858v54.558l-17.236,12.923c-2.16,1.62-5.242,0.078-5.242-2.622v-64.859H168.64z"/>
<path style="fill:#D38946;" d="M116.715,443.855H79.482c-2.844,0-5.149-2.305-5.149-5.149V5.153c0-2.844,2.305-5.149,5.149-5.149
	h37.233V443.855z"/>
<path style="fill:#BC7A39;" d="M94.31,443.855H79.482c-2.844,0-5.149-2.305-5.149-5.149V5.153c0-2.844,2.305-5.149,5.149-5.149
	h14.829v443.851H94.31z"/>
<path style="fill:#93511B;" d="M409.221,443.855H116.8V0.004h292.421c15.71,0,28.446,12.736,28.446,28.446v386.959
	C437.667,431.119,424.931,443.855,409.221,443.855z"/>
<rect x="116.799" y="0.004" style="fill:#774615;" width="51.838" height="443.846"/>
<path style="fill:#D38946;" d="M364.543,0.004c0,0,11.847,63.232,73.123,69.858V28.45c0-15.71-12.736-28.446-28.446-28.446
	C409.221,0.004,364.543,0.004,364.543,0.004z"/>
<path style="fill:#BC7A39;" d="M437.666,52.64v17.217C376.386,63.236,364.544,0,364.544,0h18.855
	C389.989,16.764,405.239,43.332,437.666,52.64z"/>
<path style="fill:#D38946;" d="M364.543,443.855c0,0,11.847-63.232,73.123-69.858v41.413c0,15.71-12.736,28.446-28.446,28.446
	H364.543z"/>
<path style="fill:#BC7A39;" d="M437.666,391.213v-17.217c-61.279,6.621-73.121,69.857-73.121,69.857h18.855
	C389.989,427.09,405.239,400.522,437.666,391.213z"/>
<g>
	<path style="fill:#D38946;" d="M274.565,302.468h-22.724c-2.844,0-5.149-2.305-5.149-5.149V128.61c0-2.844,2.305-5.149,5.149-5.149
		h22.724c2.844,0,5.149,2.305,5.149,5.149v168.709C279.714,300.162,277.408,302.468,274.565,302.468z"/>
	<path style="fill:#D38946;" d="M198.131,189.526v-22.724c0-2.844,2.305-4.834,5.149-4.834h119.847c2.844,0,5.149,1.99,5.149,4.834
		v22.724c0,2.844-2.305,5.149-5.149,5.149H203.279C200.436,194.675,198.131,192.369,198.131,189.526z"/>
</g>
<g>
	<path style="fill:#BC7A39;" d="M203.279,161.91c-2.844,0-5.149,2.305-5.149,5.149v11.262v0.1v11.262
		c0,2.844,2.305,5.149,5.149,5.149h59.922v-16.411v-0.1V161.91H203.279z"/>
	<path style="fill:#BC7A39;" d="M263.201,302.468h-11.361c-2.844,0-5.149-2.305-5.149-5.149V128.61c0-2.844,2.305-5.149,5.149-5.149
		h11.361V302.468z"/>
</g>
<g>
</g>
<g>
</g>
<g>
</g>
<g>
</g>
<g>
</g>
<g>
</g>
<g>
</g>
<g>
</g>
<g>
</g>
<g>
</g>
<g>
</g>
<g>
</g>
<g>
</g>
<g>
</g>
<g>
</g>
</svg>
