<?xml version="1.0" encoding="iso-8859-1"?>
<!-- Generator: Adobe Illustrator 19.0.0, SVG Export Plug-In . SVG Version: 6.00 Build 0)  -->
<svg version="1.1" id="Capa_1" xmlns="http://www.w3.org/2000/svg" xmlns:xlink="http://www.w3.org/1999/xlink" x="0px" y="0px"
	 viewBox="0 0 512 512" style="enable-background:new 0 0 512 512;" xml:space="preserve">
<rect x="25.344" y="286.28" style="fill:#97BC31;" width="461.31" height="205.69"/>
<rect x="25.344" y="286.28" style="fill:#76A314;" width="30.893" height="205.69"/>
<path style="fill:#66CDED;" d="M445.976,346.832h-46.54c-5.383,0-9.787,4.404-9.787,9.787v62.523c0,5.383,4.404,9.786,9.787,9.786
	h46.54c5.382,0,9.787-4.404,9.787-9.786v-62.523C455.763,351.236,451.359,346.832,445.976,346.832z"/>
<path style="fill:#CCCCCC;" d="M455.763,419.141v-17.62c-9.311,0-13.68,0-21.96,0h4.009c-9.44,0-16.576,0-26.035,0h-0.566h-0.728
	h-0.387c-0.168,0-2.368,0-2.243,0h4.392h-2.111h-0.387c-4.326,0-15.738,0-20.097,0v17.62c0,5.383,4.404,9.786,9.787,9.786h0.676
	h1.068h0.702h0.064h1.974h0.912h0.99h1.456h0.953h0.525h0.543h0.766h0.068h2.111h-4.392h0.048h1.407h1.174h0.304h0.424h0.566h0.387
	h2.111h0.064h1.377h0.304h0.157h2.038h0.387h0.728h0.566h2.379h0.183h0.068h0.922h0.387h0.461h0.064h1.974h1.425h1.933h0.702h0.251
	h0.922h0.912h1.718h0.461h0.267h0.954c0.177,0,2.037,0,1.933,0h-4.009c0.266,0,8.244,0,8.119,0c0.257,0,2.914,0,2.767,0
	c0.102,0,1.275,0,1.173,0h0.113C451.359,428.927,455.763,424.524,455.763,419.141z"/>
<path style="fill:#B7B7B7;" d="M406.178,419.141v-17.62c-5.139,0-10.441,0-16.528,0v17.62c0,5.383,4.404,9.786,9.787,9.786h0.676
	h1.068h0.702h0.064h1.974h0.912h0.99h1.456h0.574h0.048h0.331h0.525h0.543h0.008h0.758h0.068h0.349h0.304h0.424h0.566h0.387h0.081
	h2.03h0.064h1.377h0.248C410.582,428.927,406.178,424.524,406.178,419.141z"/>
<path style="fill:#56BAE2;" d="M422.706,401.521v-54.689h-23.27c-5.383,0-9.787,4.404-9.787,9.787v44.903L422.706,401.521
	L422.706,401.521z"/>
<path style="fill:#4AA5D3;" d="M415.964,346.832h-16.528c-5.383,0-9.787,4.404-9.787,9.787v44.903h16.528v-44.903
	C406.178,351.236,410.582,346.832,415.964,346.832z"/>
<g>
	<path style="fill:#76A314;" d="M486.656,457.191c-18.967,0-111.977,0-127.899,0v34.779h127.899V457.191z"/>
	<path style="fill:#76A314;" d="M153.243,457.191c-15.9,0-108.974,0-127.899,0v34.779h127.899V457.191z"/>
</g>
<rect x="25.344" y="457.19" style="fill:#6C9106;" width="30.893" height="34.779"/>
<path style="fill:#7F7E7D;" d="M500.911,279.625l-74.292-102.85c-3.156-5.06-8.698-8.136-14.662-8.136c-36.411,0-274.98,0-311.915,0
	c-5.964,0-11.506,3.075-14.662,8.136L9.953,281.447c-2.678,4.293,0.409,9.856,5.469,9.856c107.446,0,384.582,0,479.009,0
	C500.426,291.303,504.084,284.712,500.911,279.625z"/>
<path style="fill:#727272;" d="M51.819,281.447l75.428-104.672c3.156-5.061,8.698-8.136,14.662-8.136c-10.04,0-31.916,0-41.866,0
	c-5.964,0-11.506,3.075-14.662,8.136L9.953,281.447c-2.678,4.293,0.409,9.856,5.469,9.856h41.866
	C52.228,291.303,49.141,285.74,51.819,281.447z"/>
<path style="fill:#CCCCCC;" d="M161.848,30.383c-45.324,0,5.864,0-44.563,0c-4.989,0-8.454-4.702-7.368-9.306
	c0.068-0.102,1.351-5.854,7.368-5.854h44.563c4.204,0,7.612-3.408,7.612-7.612S166.051,0,161.848,0h-44.563
	c-10.356,0-19.667,7.051-22.177,17.549c-3.423,14.491,7.645,28.058,22.177,28.058c18.961,0,23.044,0,44.563,0
	c3.425,0,6.432,2.316,7.329,5.701l0.032,0.122c1.154,4.876-2.568,9.336-7.361,9.336h-12.414c-17.818,0-23.086,24.827-9.603,24.827
	c4.204,0,7.612-3.408,7.612-7.612c0-1.098,0.893-1.991,1.991-1.991h12.414c12.574,0,22.804-10.23,22.804-22.803
	C184.651,40.711,174.5,30.383,161.848,30.383z"/>
<rect x="110.97" y="134.41" style="fill:#8E6325;" width="56.05" height="61.21"/>
<rect x="110.97" y="134.41" style="fill:#7F551D;" width="28.6" height="61.21"/>
<path style="fill:#CCCCCC;" d="M174.819,203.231h-71.553c-4.204,0-7.612-3.408-7.612-7.612s3.408-7.612,7.612-7.612h71.553
	c4.204,0,7.612,3.408,7.612,7.612S179.023,203.231,174.819,203.231z"/>
<path style="fill:#7F551D;" d="M182.521,123.647c-1.121-6.477-6.748-11.364-13.488-11.364c-0.338,0-3.081,0-2.88,0
	c-0.102,0-0.417,0-0.315,0c-0.113,0-0.635,0-0.533,0c-0.102,0-0.569,0-0.467,0c-0.699,0-3.136,0-2.985,0c-0.102,0-0.353,0-0.251,0
	c-0.102,0-0.384,0-0.282,0c-0.103,0-0.674,0-0.566,0c-0.338,0-3.028,0-2.926,0c-0.102,0-0.729,0-0.627,0c-0.681,0-3.572,0-3.468,0
	c-0.102,0-0.513,0-0.412,0c-0.102,0-0.488,0-0.387,0c-0.102,0-0.403,0-0.302,0c-6.622,0-0.83,0,5.743,0c-10.787,0-21.403,0-32.022,0
	h7.964c-0.183,0-4.381,0-4.267,0c-0.204,0-13.672,0-13.086,0c-0.444,0-3.207,0-3.056,0c-0.102,0-0.404,0-0.302,0
	c-0.2,0-3.299,0-3.12,0c-0.102,0-0.488,0-0.387,0c-7.733,0-13.702,6.346-13.702,13.703c0,7.568,6.135,13.703,13.702,13.703
	c0.108,0,3.335,0,3.194,0c0.177,0,1.268,0,1.164,0c0.229,0,2.609,0,2.506,0c0.102,0,0.564,0,0.462,0c0.102,0,0.53,0,0.428,0
	c0.177,0,0.47,0,0.365,0c0.102,0,0.325,0,0.223,0c0.309,0,3.381,0,3.219,0c0.102,0,0.37,0,0.269,0c4.406,0,7.781,0,12.386,0h-7.964
	c19.13,0,9.126,0,32.022,0h-9.047c0.81,0,19.891,0,19.703,0C177.494,139.688,184.005,132.051,182.521,123.647z"/>
<path style="fill:#724817;" d="M129.428,123.648c1.119-6.477,6.746-11.366,13.489-11.366c-0.859,0-26.896,0-25.952,0
	c-0.444,0-3.207,0-3.056,0c-0.102,0-0.403,0-0.302,0c-0.2,0-3.299,0-3.12,0c-0.102,0-0.488,0-0.387,0
	c-7.745,0-13.702,6.362-13.702,13.703c0,7.568,6.135,13.703,13.702,13.703c0.108,0,3.335,0,3.194,0c0.177,0,1.268,0,1.164,0
	c0.229,0,2.609,0,2.506,0c0.102,0,0.564,0,0.462,0c0.102,0,0.53,0,0.428,0c0.177,0,0.47,0,0.365,0c0.102,0,0.325,0,0.223,0
	c0.309,0,3.381,0,3.219,0c0.102,0,0.37,0,0.269,0c0.139,0,3.354,0,3.249,0c0.102,0,0.467,0,0.365,0c0.102,0,0.53,0,0.428,0
	c0.102,0,0.481,0,0.379,0c0.102,0,0.311,0,0.21,0c0.557,0,3.007,0,2.861,0c0.102,0,0.481,0,0.379,0c0.887,0,3.636,0,3.497,0
	c0.104,0,0.583,0,0.467,0c0.102,0,0.653,0,0.551,0c0.102,0,0.462,0,0.361,0c0.485,0,8.428,0,8.238,0
	C134.457,139.688,127.955,132.066,129.428,123.648z"/>
<path style="fill:#76A314;" d="M256,180.939L153.243,283.695c0,19.478,0,178.078,0,208.275h205.513c0-10.515,0-192.633,0-200.899
	v-7.376L256,180.939z"/>
<g>
	<path style="fill:#6C9106;" d="M184.137,252.802l-30.893,30.893c0,19.478,0,178.078,0,208.275h30.893V252.802z"/>
	<path style="fill:#6C9106;" d="M153.243,457.191v34.781c23.371,0,181.074,0,205.513,0v-34.781
		C333.146,457.191,176.532,457.191,153.243,457.191z"/>
</g>
<path style="fill:#627C04;" d="M153.243,457.191v34.781c6.636,0,23.304,0,31.805,0v-34.781
	C176.947,457.191,161.336,457.191,153.243,457.191z"/>
<path style="fill:#CCCCCC;" d="M285.36,346.832h-58.719c-5.383,0-9.787,4.404-9.787,9.787c0,0.142,0,8.515,0,8.061
	c0,44.572,0,86.539,0,127.291h78.292c0-45.137,0-90.305,0-135.352C295.146,351.236,290.742,346.832,285.36,346.832z"/>
<path style="fill:#B7B7B7;" d="M243.96,356.618c0-5.383,4.404-9.787,9.787-9.787h-27.106c-5.383,0-9.787,4.404-9.787,9.787
	c0,0.142,0,8.515,0,8.061c0,44.572,0,86.539,0,127.291h27.106C243.96,446.833,243.96,401.665,243.96,356.618z"/>
<path style="fill:#E6E6E6;" d="M244.366,433.696c-4.204,0-7.612-3.408-7.612-7.612V412.16c0-4.204,3.408-7.612,7.612-7.612
	s7.612,3.408,7.612,7.612v13.925C251.978,430.289,248.569,433.696,244.366,433.696z"/>
<path style="fill:#8E6325;" d="M3.808,497.958c0.003-0.108-0.007-0.214-0.002-0.322c0.006-0.126,0.027-0.247,0.037-0.372
	c0.017-0.233,0.039-0.464,0.068-0.693c0.026-0.206,0.058-0.409,0.093-0.611c0.048-0.277,0.103-0.551,0.167-0.823
	c0.029-0.118,0.059-0.235,0.091-0.352c1.553-5.862,6.88-10.189,13.231-10.189c22.949,0,460.698,0,477.014,0
	c7.798,0,13.702,6.426,13.702,13.702l0,0c0,7.568-6.135,13.702-13.702,13.702l0,0c-53.858,0-422.592,0-477.014,0l0,0
	c-7.568,0-13.702-6.135-13.702-13.702l0,0C3.791,498.183,3.805,498.072,3.808,497.958z"/>
<path style="fill:#7F551D;" d="M42.937,498.298c0-0.115,0.014-0.225,0.017-0.339c0.003-0.108-0.007-0.214-0.002-0.322
	c0.006-0.126,0.027-0.247,0.037-0.372c0.017-0.233,0.039-0.464,0.068-0.693c0.026-0.205,0.058-0.409,0.093-0.611
	c0.048-0.277,0.103-0.551,0.167-0.823c0.029-0.118,0.059-0.235,0.091-0.352c1.553-5.862,6.88-10.189,13.231-10.189
	c-21.31,0-35.492,0-39.146,0c-6.351,0-11.677,4.327-13.231,10.189c-0.032,0.117-0.062,0.234-0.091,0.352
	c-0.064,0.271-0.119,0.545-0.167,0.823c-0.036,0.202-0.067,0.406-0.093,0.611c-0.029,0.23-0.051,0.46-0.068,0.693
	c-0.009,0.125-0.031,0.246-0.037,0.372c-0.005,0.109,0.004,0.214,0.002,0.322c-0.003,0.114-0.017,0.225-0.017,0.339
	c0,7.568,6.135,13.702,13.702,13.702c7.553,0,21.167,0,39.146,0C49.072,512,42.937,505.865,42.937,498.298z"/>
<path style="fill:#CCCCCC;" d="M362.361,297.449L257.673,192.762c-0.924-0.924-2.422-0.924-3.347,0L149.639,297.449
	c-5.351,5.351-14.026,5.352-19.377,0c-5.351-5.351-5.351-14.026,0-19.377l116.049-116.049c5.351-5.35,14.026-5.35,19.377,0
	l116.049,116.049c5.351,5.351,5.351,14.026,0,19.377C376.386,302.8,367.712,302.799,362.361,297.449z"/>
<path style="fill:#B7B7B7;" d="M267.594,179.515c3.2-3.2,7.588-4.471,11.744-3.843l-13.649-13.649c-5.351-5.35-14.026-5.35-19.377,0
	l-116.05,116.049c-5.351,5.351-5.351,14.026,0,19.377c5.351,5.352,14.026,5.351,19.377,0
	C153.461,293.628,238.817,208.286,267.594,179.515z"/>
<path style="fill:#66CDED;" d="M112.564,346.832h-46.54c-5.383,0-9.787,4.404-9.787,9.787v62.523c0,5.383,4.404,9.786,9.787,9.786
	h46.54c5.382,0,9.787-4.404,9.787-9.786v-62.523C122.35,351.236,117.946,346.832,112.564,346.832z"/>
<path style="fill:#CCCCCC;" d="M122.35,419.141v-17.62h-1.781h-1.173h-2.635h-0.251h-0.136h-3.537h-0.387h-1.173h-2.767h-3.792
	h-0.387h-0.787h-0.267h-0.461h-0.387h-2.038h4.009h-1.933h-0.387h-0.566h-0.267h-0.461h-0.387h-2.243h-0.922h-0.251h-0.136H96.28
	h-1.933H93.96h-1.038h-2.038h-0.461h-0.387h-0.922h-0.251h-0.136h-2.243h-0.566H85.19h-0.387h-2.038h-0.461h-0.387h-1.055h-2.111
	h-0.387h-0.566H77.07h-0.387h-0.787H74.44h4.392h-2.111h-0.387h-0.447h-1.068h-0.387h-0.566H72.41h-1.902H68.47h-0.702H66.7h-0.387
	H64.41h-0.34h-0.566h-0.267h-0.461h-0.387h-2.038h-0.908h-0.607H58.27h-1.933H56.29h-0.053v17.62c0,5.383,4.404,9.786,9.787,9.786
	H66.7h1.068h0.702h0.064h1.974h0.912h0.99h1.456h0.953h0.525h0.543h0.766h0.068h2.111H74.44h0.048h1.407h1.174h0.304h0.424h0.566
	h0.387h2.111h0.064h1.377h0.304h0.157h2.038h0.387h0.728h0.566h2.379h0.183h0.068h0.922h0.387h0.461h0.064h1.974h1.425h1.933h0.702
	h0.251h0.922h0.912h1.718h0.461h0.267h0.954h0.525h1.407h-4.009h2.425h0.461h0.064h0.203h1.175h0.304h2.379h1.109h0.064h2.703h0.183
	h0.99h0.113C117.946,428.927,122.35,424.524,122.35,419.141z"/>
<path style="fill:#B7B7B7;" d="M72.765,419.141v-17.62H72.41h-1.902H68.47h-0.702H66.7h-0.387H64.41h-0.34h-0.566h-0.267h-0.461
	h-0.387h-2.038h-0.908h-0.607H58.27h-1.933H56.29h-0.053v17.62c0,5.383,4.404,9.786,9.787,9.786H66.7h1.068h0.702h0.064h1.974h0.912
	h0.99h1.456h0.574h0.048h0.331h0.525h0.543h0.008h0.758h0.068h0.349h0.304h0.424h0.566h0.387h0.081h2.03h0.064h1.377h0.248
	C77.169,428.927,72.765,424.524,72.765,419.141z"/>
<path style="fill:#56BAE2;" d="M89.294,401.521v-54.689h-23.27c-5.383,0-9.787,4.404-9.787,9.787v44.903L89.294,401.521
	L89.294,401.521z"/>
<path style="fill:#4AA5D3;" d="M82.552,346.832H66.024c-5.383,0-9.787,4.404-9.787,9.787v44.903h16.528v-44.903
	C72.765,351.236,77.169,346.832,82.552,346.832z"/>
<g>
</g>
<g>
</g>
<g>
</g>
<g>
</g>
<g>
</g>
<g>
</g>
<g>
</g>
<g>
</g>
<g>
</g>
<g>
</g>
<g>
</g>
<g>
</g>
<g>
</g>
<g>
</g>
<g>
</g>
</svg>
