<?xml version="1.0" encoding="iso-8859-1"?>
<!-- Generator: Adobe Illustrator 19.0.0, SVG Export Plug-In . SVG Version: 6.00 Build 0)  -->
<svg version="1.1" id="Capa_1" xmlns="http://www.w3.org/2000/svg" xmlns:xlink="http://www.w3.org/1999/xlink" x="0px" y="0px"
	 viewBox="0 0 512.001 512.001" style="enable-background:new 0 0 512.001 512.001;" xml:space="preserve">
<path style="fill:#575C62;" d="M83.679,153.427c-3.272,0-6.341-2.03-7.508-5.287c-1.484-4.145,0.672-8.711,4.818-10.195
	L451.005,5.416c4.144-1.483,8.71,0.671,10.196,4.818c1.484,4.145-0.672,8.711-4.817,10.195L86.367,152.958
	C85.479,153.276,84.571,153.427,83.679,153.427z"/>
<g>
	<path style="fill:#30303A;" d="M112.028,507.054H56.128c-4.89,0-8.854-3.965-8.854-8.854v-37.489h73.608V498.2
		C120.882,503.09,116.918,507.054,112.028,507.054z"/>
	<path style="fill:#30303A;" d="M455.871,507.054h-55.899c-4.89,0-8.854-3.965-8.854-8.854v-37.489h73.608V498.2
		C464.725,503.09,460.76,507.054,455.871,507.054z"/>
</g>
<path style="fill:#89CD16;" d="M428.32,133.562H83.679c-23.485,0-43.407,17.243-46.777,40.484L0.498,425.153
	c-4.133,28.505,17.973,54.047,46.777,54.047h417.451c28.803,0,50.91-25.542,46.777-54.047l-36.405-251.107
	C471.728,150.805,451.805,133.562,428.32,133.562z"/>
<path style="fill:#7EB70F;" d="M510.196,416.152c-5.579,19.589-23.585,34.343-45.472,34.343H47.274
	c-21.887,0-39.893-14.754-45.472-34.343l-1.305,9.001c-4.133,28.505,17.973,54.047,46.777,54.047h417.451
	c28.803,0,50.91-25.542,46.777-54.047L510.196,416.152z"/>
<g>
	<path style="fill:#577A09;" d="M389.908,202.197H246.293c-4.404,0-7.974-3.57-7.974-7.974c0-4.404,3.57-7.974,7.974-7.974h143.616
		c4.405,0,7.974,3.57,7.974,7.974C397.882,198.627,394.313,202.197,389.908,202.197z"/>
	<path style="fill:#577A09;" d="M389.908,426.52H246.293c-4.404,0-7.974-3.57-7.974-7.974c0-4.404,3.57-7.974,7.974-7.974h143.616
		c4.405,0,7.974,3.57,7.974,7.974C397.882,422.949,394.313,426.52,389.908,426.52z"/>
	<path style="fill:#577A09;" d="M428.289,389.127H207.911c-4.404,0-7.974-3.57-7.974-7.974s3.57-7.974,7.974-7.974h220.378
		c4.405,0,7.974,3.57,7.974,7.974S432.694,389.127,428.289,389.127z"/>
	<path style="fill:#577A09;" d="M445.929,351.745H190.274c-4.404,0-7.974-3.57-7.974-7.974c0-4.404,3.57-7.974,7.974-7.974h255.654
		c4.405,0,7.974,3.57,7.974,7.974C453.903,348.175,450.332,351.745,445.929,351.745z"/>
	<path style="fill:#577A09;" d="M451.255,314.353H184.948c-4.404,0-7.974-3.57-7.974-7.974s3.57-7.974,7.974-7.974h266.308
		c4.405,0,7.974,3.57,7.974,7.974S455.659,314.353,451.255,314.353z"/>
	<path style="fill:#577A09;" d="M445.939,276.971H190.264c-4.404,0-7.974-3.57-7.974-7.974c0-4.404,3.57-7.974,7.974-7.974h255.676
		c4.405,0,7.974,3.57,7.974,7.974C453.913,273.401,450.343,276.971,445.939,276.971z"/>
	<path style="fill:#577A09;" d="M428.289,239.579H207.911c-4.404,0-7.974-3.57-7.974-7.974s3.57-7.974,7.974-7.974h220.378
		c4.405,0,7.974,3.57,7.974,7.974S432.694,239.579,428.289,239.579z"/>
</g>
<path style="fill:#7EB70F;" d="M109.72,265.723c-23.449,0-42.527-19.077-42.527-42.527S86.27,180.67,109.72,180.67
	s42.526,19.077,42.526,42.526S133.168,265.723,109.72,265.723z"/>
<circle style="fill:#E8E8EA;" cx="109.721" cy="223.196" r="31.895"/>
<path style="fill:#7EB70F;" d="M102.543,372.568c-27.406,0-49.703-22.296-49.703-49.703c0-27.406,22.296-49.702,49.703-49.702
	c27.406,0,49.702,22.296,49.702,49.702C152.245,350.272,129.949,372.568,102.543,372.568z"/>
<circle style="fill:#E8E8EA;" cx="102.544" cy="322.87" r="39.07"/>
<g>
	<path style="fill:#B9B9BA;" d="M123.455,222.883c-3.476,0-6.605-2.335-7.622-5.655c-1.013-3.305,0.31-7.033,3.199-8.942
		c5.854-3.87,13.757,1.46,12.204,8.377C130.428,220.262,127.139,222.883,123.455,222.883z"/>
	<path style="fill:#B9B9BA;" d="M102.542,308.299c-3.369,0-6.442-2.217-7.537-5.39c-1.118-3.24,0.039-6.954,2.792-8.994
		c5.883-4.358,14.29,1.246,12.471,8.367C109.377,305.772,106.149,308.299,102.542,308.299z"/>
</g>
<g>
</g>
<g>
</g>
<g>
</g>
<g>
</g>
<g>
</g>
<g>
</g>
<g>
</g>
<g>
</g>
<g>
</g>
<g>
</g>
<g>
</g>
<g>
</g>
<g>
</g>
<g>
</g>
<g>
</g>
</svg>
